<!--?xml version="1.0" standalone="no"?-->
              <svg id="sw-js-blob-svg" viewBox="0 0 100 100" xmlns="http://www.w3.org/2000/svg" version="1.1">
                    <defs> 
                        <linearGradient id="sw-gradient" x1="0" x2="1" y1="1" y2="0">
                            <stop id="stop1" stop-color="rgba(248, 117, 55, 1)" offset="0%"></stop>
                            <stop id="stop2" stop-color="rgba(251, 168, 31, 1)" offset="100%"></stop>
                        </linearGradient>
                    </defs>
                <path fill="url(#sw-gradient)" d="M21.5,-33C28,-29.4,33.3,-23.5,35.3,-16.8C37.3,-10.1,36,-2.5,34.6,4.8C33.3,12.2,32,19.4,28.1,25.1C24.3,30.8,17.9,35.1,11.2,36.3C4.4,37.5,-2.7,35.6,-9.7,33.4C-16.8,31.3,-23.6,28.8,-28.9,24.2C-34.1,19.6,-37.7,12.8,-38.9,5.5C-40,-1.7,-38.6,-9.3,-35.9,-16.8C-33.2,-24.4,-29.1,-31.7,-23,-35.4C-16.8,-39.1,-8.4,-39.2,-0.4,-38.5C7.6,-37.9,15.1,-36.6,21.5,-33Z" width="100%" height="100%" transform="translate(50 50)" stroke-width="0" style="transition: all 0.3s ease 0s;"></path>
              </svg>